<svg xmlns="http://www.w3.org/2000/svg" xmlns:xlink="http://www.w3.org/1999/xlink" viewBox="0 0 1223.4 477.2"><defs><style>.cls-1{isolation:isolate;}.cls-2{fill:#206aa5;}.cls-3,.cls-9{fill:#fff;}.cls-4{fill:none;stroke:#fff;stroke-miterlimit:10;stroke-width:9px;}.cls-5{opacity:0.3;}.cls-10,.cls-15,.cls-16,.cls-5,.cls-7,.cls-8,.cls-9{mix-blend-mode:multiply;}.cls-6,.cls-8{fill:#e6e6e6;}.cls-11,.cls-7{fill:#ccc;}.cls-10{fill:#999;}.cls-12{fill:#00dac7;}.cls-13{fill:#00abd8;}.cls-14{opacity:0.7;}.cls-15{fill:url(#linear-gradient);}.cls-16{fill:url(#linear-gradient-2);}</style><linearGradient id="linear-gradient" x1="157.59" y1="320.99" x2="216.78" y2="259.22" gradientUnits="userSpaceOnUse"><stop offset="0.49" stop-color="#fff"/><stop offset="0.55" stop-color="#fafafa"/><stop offset="0.61" stop-color="#ececec"/><stop offset="0.68" stop-color="#d5d5d5"/><stop offset="0.75" stop-color="#b5b5b5"/><stop offset="0.82" stop-color="#8c8c8c"/><stop offset="0.89" stop-color="#595959"/><stop offset="0.97" stop-color="#1e1e1e"/><stop offset="1"/></linearGradient><linearGradient id="linear-gradient-2" x1="5042.19" y1="-561.5" x2="5101.38" y2="-623.26" gradientTransform="translate(5361.4 -405.3) rotate(180)" xlink:href="#linear-gradient"/></defs><title>dark</title><g class="cls-1"><g id="Background"><rect class="cls-2" width="1223.4" height="477.19"/><path class="cls-3" d="M652.4,287.1l.9-119.8h-.7L609.1,287.1H580.7L538.4,167.3h-.7l.9,119.8h-38V117.8h57.5l38.1,108.6h1l36.4-108.6h58.5V287.1Z"/><path class="cls-3" d="M882.6,202c0,14.8-2.7,27.6-8.2,38.4a76.9,76.9,0,0,1-21.5,26.5,90.2,90.2,0,0,1-30.1,15.3,119.5,119.5,0,0,1-34,4.9H726.3V117.8h60.6a148.3,148.3,0,0,1,35,4.2,86.8,86.8,0,0,1,30.7,13.9c9,6.4,16.2,15.1,21.7,25.9S882.6,186,882.6,202Zm-42.1,0c0-9.6-1.5-17.5-4.6-23.8a41,41,0,0,0-12.3-15.1,49.2,49.2,0,0,0-17.5-8,84,84,0,0,0-20.2-2.4H765.8v99H785a84.8,84.8,0,0,0,20.9-2.5,49.7,49.7,0,0,0,17.7-8.2,42.5,42.5,0,0,0,12.3-15.3C839,219.3,840.5,211.4,840.5,202Z"/><path class="cls-3" d="M1029.2,284.1c-10.9,5-23.4,7.5-37.6,7.5a97,97,0,0,1-35.8-6.4,83.2,83.2,0,0,1-47.4-46.6,93.3,93.3,0,0,1-6.9-36.4c0-13.5,2.3-25.8,7-36.8a81,81,0,0,1,19.3-28.1,84.1,84.1,0,0,1,28.8-17.8,99.2,99.2,0,0,1,35.7-6.2,100.9,100.9,0,0,1,34.9,6.3c11.4,4.2,20.6,10.4,27.7,18.5l-27.4,27.8a33.2,33.2,0,0,0-14.9-11.7,47.7,47.7,0,0,0-18.9-3.9,46.3,46.3,0,0,0-19.5,4A43.7,43.7,0,0,0,959,165.2a49,49,0,0,0-10,16.3,59.9,59.9,0,0,0-3.5,20.7,61.8,61.8,0,0,0,3.5,21.1,51,51,0,0,0,9.8,16.3,44.1,44.1,0,0,0,15.1,10.7,47.9,47.9,0,0,0,19.1,3.8c8,0,15.1-1.6,21-4.8a41.8,41.8,0,0,0,14.5-12.4l28.1,26.8A80,80,0,0,1,1029.2,284.1Z"/><path class="cls-3" d="M1073.9,287.1V117.8h40.6V251.5h64.8v35.6Z"/><path class="cls-3" d="M508.9,364.5V332.8H497.6v-6.4h30.3v6.4H516.6v31.7Z"/><path class="cls-3" d="M547.5,355.7l7.3,1.2a12.4,12.4,0,0,1-4.5,6.1,12.8,12.8,0,0,1-7.5,2.1c-4.8,0-8.4-1.6-10.7-4.7a15.9,15.9,0,0,1-2.7-9.5q0-6.9,3.6-10.8a11.7,11.7,0,0,1,9-3.8c4.1,0,7.4,1.3,9.7,4s3.6,6.9,3.4,12.5H536.9a7.2,7.2,0,0,0,1.7,5,5.8,5.8,0,0,0,4.2,1.8,4.6,4.6,0,0,0,2.9-.9A5.5,5.5,0,0,0,547.5,355.7Zm.4-7.4a7.4,7.4,0,0,0-1.6-4.8,5.2,5.2,0,0,0-7.8.1,6.8,6.8,0,0,0-1.5,4.7Z"/><path class="cls-3" d="M587.8,345l-7.2,1.3a5.2,5.2,0,0,0-1.6-3.2,5.8,5.8,0,0,0-7.7.8c-1.1,1.2-1.6,3.3-1.6,6.3s.5,5.6,1.6,6.9a5.3,5.3,0,0,0,4.4,2,5.3,5.3,0,0,0,3.4-1.1,7.5,7.5,0,0,0,1.9-4.1l7.2,1.2a13.3,13.3,0,0,1-4.3,7.5,13.8,13.8,0,0,1-8.5,2.5,13,13,0,0,1-9.7-3.8c-2.4-2.6-3.6-6.1-3.6-10.6s1.2-8.1,3.7-10.6,5.6-3.8,9.7-3.8a13.6,13.6,0,0,1,8,2.1A12.6,12.6,0,0,1,587.8,345Z"/><path class="cls-3" d="M603.3,326.4v14a10.4,10.4,0,0,1,8.4-4.1,11.4,11.4,0,0,1,4.6.9,7.3,7.3,0,0,1,3,2.4,7.1,7.1,0,0,1,1.4,3.2,25.1,25.1,0,0,1,.4,5.5v16.2h-7.3V349.9a20.8,20.8,0,0,0-.4-5.5,4,4,0,0,0-1.5-1.9,5.3,5.3,0,0,0-2.6-.7,6.3,6.3,0,0,0-3.3.9,5.8,5.8,0,0,0-2.1,2.7,17.2,17.2,0,0,0-.6,5.2v13.9H596V326.4Z"/><path class="cls-3" d="M656.2,364.5h-7.3V350.4a23.7,23.7,0,0,0-.4-5.8,3.8,3.8,0,0,0-1.5-2,4.5,4.5,0,0,0-2.6-.8,6,6,0,0,0-3.4,1.1,4.8,4.8,0,0,0-2,2.7,22.9,22.9,0,0,0-.6,6.4v12.5h-7.3V336.9h6.8v4a11,11,0,0,1,9.1-4.6,10.8,10.8,0,0,1,4.4.8,7.8,7.8,0,0,1,3,2.2,7.3,7.3,0,0,1,1.4,3.1,21.3,21.3,0,0,1,.4,4.9Z"/><path class="cls-3" d="M664.6,350.3a15.3,15.3,0,0,1,1.8-7.1,12.8,12.8,0,0,1,5.1-5.2,16,16,0,0,1,7.3-1.7,13.9,13.9,0,0,1,10.3,4A15.3,15.3,0,0,1,689,361a13.6,13.6,0,0,1-10.1,4.1,16.6,16.6,0,0,1-7.3-1.7,11.7,11.7,0,0,1-5.2-5.1A16.6,16.6,0,0,1,664.6,350.3Zm7.5.4A9.3,9.3,0,0,0,674,357a6.3,6.3,0,0,0,4.8,2.1,6.1,6.1,0,0,0,4.8-2.1,9.4,9.4,0,0,0,2-6.4,8.9,8.9,0,0,0-2-6.2,5.9,5.9,0,0,0-4.8-2.2,6.1,6.1,0,0,0-4.8,2.2C672.7,345.8,672.1,347.9,672.1,350.7Z"/><path class="cls-3" d="M701.5,364.5V326.4h7.3v38.1Z"/><path class="cls-3" d="M717.2,350.3a15.3,15.3,0,0,1,1.8-7.1,12.8,12.8,0,0,1,5.1-5.2,16,16,0,0,1,7.3-1.7,13.9,13.9,0,0,1,10.3,4,15.3,15.3,0,0,1-.1,20.7,13.8,13.8,0,0,1-10.1,4.1,16.6,16.6,0,0,1-7.3-1.7,11.7,11.7,0,0,1-5.2-5.1A16.6,16.6,0,0,1,717.2,350.3Zm7.5.4a9.3,9.3,0,0,0,1.9,6.3,6.5,6.5,0,0,0,9.6,0,9.4,9.4,0,0,0,2-6.4,8.9,8.9,0,0,0-2-6.2,6.3,6.3,0,0,0-9.6,0C725.3,345.8,724.7,347.9,724.7,350.7Z"/><path class="cls-3" d="M753.4,366.3l8.3,1a2.7,2.7,0,0,0,1,2,5.6,5.6,0,0,0,3.2.8,8.1,8.1,0,0,0,4.3-.9,3.4,3.4,0,0,0,1.5-1.8,13,13,0,0,0,.3-3.4v-4c-2.2,3-4.9,4.5-8.2,4.5a10.2,10.2,0,0,1-8.8-4.7,16.2,16.2,0,0,1-2.6-9.3c0-4.6,1.1-8.1,3.3-10.6a11,11,0,0,1,8.3-3.6,10.2,10.2,0,0,1,8.5,4.4v-3.8h6.8v24.7a25.8,25.8,0,0,1-.8,7.3,9.3,9.3,0,0,1-2.2,3.8,10.5,10.5,0,0,1-3.9,2.2,21.7,21.7,0,0,1-6.2.8c-4.6,0-8-.8-9.9-2.4a7.6,7.6,0,0,1-3-6.1C753.3,366.9,753.4,366.6,753.4,366.3Zm6.5-16.2c0,2.9.6,5.1,1.7,6.4a5.1,5.1,0,0,0,4.2,2.1,5.7,5.7,0,0,0,4.5-2.1c1.2-1.4,1.8-3.5,1.8-6.2s-.5-5-1.7-6.4a5.7,5.7,0,0,0-4.5-2.1,5.3,5.3,0,0,0-4.3,2.1C760.5,345.2,759.9,347.3,759.9,350.1Z"/><path class="cls-3" d="M785.7,336.9h7.8l6.6,19.6,6.4-19.6h7.6l-9.7,26.5-1.8,4.8a15.9,15.9,0,0,1-1.8,3.7,8.1,8.1,0,0,1-2,2.1,10.3,10.3,0,0,1-2.8,1.2,13.8,13.8,0,0,1-3.7.5,18.4,18.4,0,0,1-4.1-.5l-.7-5.7,3.1.3a4.6,4.6,0,0,0,3.8-1.5,9.6,9.6,0,0,0,1.8-3.8Z"/><path class="cls-3" d="M838.9,364.5V326.4h28.3v6.4H846.6v8.5h19.1v6.4H846.6V358h21.3v6.5Z"/><path class="cls-3" d="M902.1,364.5h-7.3V350.4c0-3-.1-4.9-.5-5.8a3.8,3.8,0,0,0-1.5-2,4.1,4.1,0,0,0-2.5-.8,5.8,5.8,0,0,0-3.4,1.1,5.6,5.6,0,0,0-2.1,2.7,24,24,0,0,0-.5,6.4v12.5H877V336.9h6.7v4a11.2,11.2,0,0,1,9.1-4.6,10.5,10.5,0,0,1,4.4.8,7.5,7.5,0,0,1,3.1,2.2,8.7,8.7,0,0,1,1.4,3.1,21.3,21.3,0,0,1,.4,4.9Z"/><path class="cls-3" d="M911.5,366.3l8.3,1a3.2,3.2,0,0,0,1,2,5.7,5.7,0,0,0,3.3.8,8.3,8.3,0,0,0,4.3-.9,3.7,3.7,0,0,0,1.4-1.8,13,13,0,0,0,.3-3.4v-4a9.7,9.7,0,0,1-8.2,4.5,10.2,10.2,0,0,1-8.8-4.7,16.2,16.2,0,0,1-2.6-9.3c0-4.6,1.1-8.1,3.4-10.6a10.8,10.8,0,0,1,8.3-3.6,10.2,10.2,0,0,1,8.4,4.4v-3.8h6.8v24.7a22.5,22.5,0,0,1-.8,7.3,9.3,9.3,0,0,1-2.2,3.8,10.5,10.5,0,0,1-3.9,2.2,21,21,0,0,1-6.1.8c-4.7,0-8-.8-10-2.4a7.5,7.5,0,0,1-2.9-6.1Zm6.5-16.2c0,2.9.6,5.1,1.7,6.4a5.1,5.1,0,0,0,4.2,2.1,5.7,5.7,0,0,0,4.5-2.1c1.3-1.4,1.9-3.5,1.9-6.2s-.6-5-1.8-6.4a5.7,5.7,0,0,0-4.5-2.1,5.3,5.3,0,0,0-4.3,2.1C918.6,345.2,918,347.3,918,350.1Z"/><path class="cls-3" d="M947.3,333.1v-6.7h7.3v6.7Zm0,31.4V336.9h7.3v27.6Z"/><path class="cls-3" d="M989.8,364.5h-7.2V350.4a22,22,0,0,0-.5-5.8,3.8,3.8,0,0,0-1.5-2,4.5,4.5,0,0,0-2.6-.8,6,6,0,0,0-3.4,1.1,4.8,4.8,0,0,0-2,2.7,22.9,22.9,0,0,0-.6,6.4v12.5h-7.3V336.9h6.8v4a11,11,0,0,1,9.1-4.6,10.5,10.5,0,0,1,4.4.8,7.8,7.8,0,0,1,3,2.2,7.3,7.3,0,0,1,1.4,3.1,21.3,21.3,0,0,1,.4,4.9Z"/><path class="cls-3" d="M1015.9,355.7l7.3,1.2a12.4,12.4,0,0,1-4.5,6.1,12.8,12.8,0,0,1-7.5,2.1c-4.8,0-8.4-1.6-10.7-4.7a15.9,15.9,0,0,1-2.7-9.5q0-6.9,3.6-10.8a11.7,11.7,0,0,1,9-3.8c4.1,0,7.4,1.3,9.7,4s3.6,6.9,3.4,12.5h-18.2a7.2,7.2,0,0,0,1.7,5,5.8,5.8,0,0,0,4.2,1.8,4.6,4.6,0,0,0,2.9-.9A5.5,5.5,0,0,0,1015.9,355.7Zm.4-7.4a7.4,7.4,0,0,0-1.6-4.8,5.2,5.2,0,0,0-7.8.1,6.8,6.8,0,0,0-1.5,4.7Z"/><path class="cls-3" d="M1048.1,355.7l7.3,1.2a11.7,11.7,0,0,1-4.4,6.1,13.1,13.1,0,0,1-7.6,2.1c-4.8,0-8.3-1.6-10.6-4.7a15.3,15.3,0,0,1-2.8-9.5q0-6.9,3.6-10.8a11.7,11.7,0,0,1,9.1-3.8c4.1,0,7.3,1.3,9.7,4s3.5,6.9,3.4,12.5h-18.3a7.2,7.2,0,0,0,1.8,5,5.4,5.4,0,0,0,4.2,1.8,4.8,4.8,0,0,0,2.9-.9A6.1,6.1,0,0,0,1048.1,355.7Zm.4-7.4a6.9,6.9,0,0,0-1.6-4.8,5,5,0,0,0-3.8-1.7,4.8,4.8,0,0,0-3.9,1.8,6.4,6.4,0,0,0-1.6,4.7Z"/><path class="cls-3" d="M1071.4,364.5h-7.3V336.9h6.8v3.9a11.2,11.2,0,0,1,3.1-3.7,5.7,5.7,0,0,1,3.2-.8,9.6,9.6,0,0,1,4.8,1.3l-2.3,6.4a6.4,6.4,0,0,0-3.4-1.2,4.2,4.2,0,0,0-2.6.8,6,6,0,0,0-1.7,3.1,44.3,44.3,0,0,0-.6,9.2Z"/><path class="cls-3" d="M1087.8,333.1v-6.7h7.3v6.7Zm0,31.4V336.9h7.3v27.6Z"/><path class="cls-3" d="M1130.3,364.5H1123V350.4a22,22,0,0,0-.5-5.8,3.8,3.8,0,0,0-1.5-2,4.1,4.1,0,0,0-2.5-.8,5.8,5.8,0,0,0-3.4,1.1,5.6,5.6,0,0,0-2.1,2.7,22.9,22.9,0,0,0-.6,6.4v12.5h-7.3V336.9h6.8v4a11.1,11.1,0,0,1,9.1-4.6,10.5,10.5,0,0,1,4.4.8,7.5,7.5,0,0,1,3.1,2.2,10.9,10.9,0,0,1,1.4,3.1,21.3,21.3,0,0,1,.4,4.9Z"/><path class="cls-3" d="M1139.7,366.3l8.3,1a2.7,2.7,0,0,0,1,2,5.6,5.6,0,0,0,3.2.8,8.1,8.1,0,0,0,4.3-.9,3.4,3.4,0,0,0,1.5-1.8,13,13,0,0,0,.3-3.4v-4c-2.2,3-4.9,4.5-8.2,4.5a10.2,10.2,0,0,1-8.8-4.7,16.2,16.2,0,0,1-2.6-9.3c0-4.6,1.1-8.1,3.3-10.6a11,11,0,0,1,8.3-3.6,10.2,10.2,0,0,1,8.5,4.4v-3.8h6.8v24.7a22.5,22.5,0,0,1-.8,7.3,9.3,9.3,0,0,1-2.2,3.8,10.5,10.5,0,0,1-3.9,2.2,21.2,21.2,0,0,1-6.2.8c-4.6,0-8-.8-9.9-2.4a7.6,7.6,0,0,1-3-6.1C1139.6,366.9,1139.7,366.6,1139.7,366.3Zm6.5-16.2c0,2.9.6,5.1,1.7,6.4a5.1,5.1,0,0,0,4.2,2.1,5.7,5.7,0,0,0,4.5-2.1,9.4,9.4,0,0,0,1.9-6.2c0-2.9-.6-5-1.8-6.4a5.7,5.7,0,0,0-4.5-2.1,5.3,5.3,0,0,0-4.3,2.1C1146.8,345.2,1146.2,347.3,1146.2,350.1Z"/><circle class="cls-4" cx="238.4" cy="238.6" r="196.3"/><circle class="cls-4" cx="238.4" cy="238.6" r="157.6"/><path class="cls-3" d="M266,326.7,150.3,211a42.8,42.8,0,0,1,0-60.5h0a42.6,42.6,0,0,1,60.5,0L326.6,266.2a42.8,42.8,0,0,1,0,60.5h0A42.7,42.7,0,0,1,266,326.7Z"/><path class="cls-3" d="M210.8,326.7,326.6,211a42.8,42.8,0,0,0,0-60.5h0a42.7,42.7,0,0,0-60.6,0L150.3,266.2a42.8,42.8,0,0,0,0,60.5h0A42.6,42.6,0,0,0,210.8,326.7Z"/><g class="cls-5"><path class="cls-6" d="M177.9,238.6l30.2,30.3-57.8,57.8a42.8,42.8,0,0,1,0-60.5Z"/><path class="cls-3" d="M326.6,150.5l-57.9,57.8L238.4,178,266,150.5A42.7,42.7,0,0,1,326.6,150.5Z"/><path class="cls-7" d="M208.1,268.9l30.3,30.3-27.5,27.5a42.7,42.7,0,0,1-60.6,0h0Z"/><path class="cls-8" d="M326.6,211,299,238.6l-30.3-30.3,57.9-57.8A42.8,42.8,0,0,1,326.6,211Z"/><polygon class="cls-9" points="299 238.6 268.7 268.9 238.4 299.2 208.1 268.9 177.9 238.6 208.2 208.3 238.4 178 268.7 208.3 299 238.6"/><path class="cls-8" d="M150.3,150.5l57.9,57.8-30.3,30.3L150.3,211A42.8,42.8,0,0,1,150.3,150.5Z"/><path class="cls-10" d="M326.6,326.7h0a42.7,42.7,0,0,1-60.6,0l-27.6-27.5,30.3-30.3Z"/><path class="cls-3" d="M210.9,150.5,238.4,178l-30.2,30.3-57.9-57.8A42.7,42.7,0,0,1,210.9,150.5Z"/><path class="cls-11" d="M326.6,326.7l-57.9-57.8L299,238.6l27.6,27.6A42.8,42.8,0,0,1,326.6,326.7Z"/></g><polygon class="cls-12" points="208.1 208.3 177.8 238.6 208.1 268.9 238.4 299.2 238.4 178 208.1 208.3"/><polygon class="cls-13" points="268.7 208.3 238.4 178 238.4 299.2 268.7 268.9 299 238.6 268.7 208.3"/><g class="cls-14"><polygon class="cls-15" points="177.8 238.6 238.4 299.1 150.3 266.2 177.8 238.6"/><polygon class="cls-16" points="299 238.6 238.4 178 326.6 211 299 238.6"/></g></g></g></svg>