<svg xmlns="http://www.w3.org/2000/svg" xmlns:xlink="http://www.w3.org/1999/xlink" viewBox="0 0 1223.4 477.2"><defs><style>.cls-1{isolation:isolate;}.cls-10,.cls-2{fill:#fff;}.cls-3{fill:#005c9e;}.cls-4{fill:#2e5790;}.cls-5,.cls-6{fill:none;stroke:#206aa5;stroke-miterlimit:10;}.cls-5{stroke-width:11px;}.cls-10,.cls-13,.cls-14,.cls-5,.cls-6,.cls-9{mix-blend-mode:multiply;}.cls-6{stroke-width:9.92px;}.cls-7{fill:url(#linear-gradient);}.cls-8{fill:url(#linear-gradient-2);}.cls-9{opacity:0.3;}.cls-11{fill:#00dac7;}.cls-12{fill:#00abd8;}.cls-13{fill:url(#linear-gradient-3);}.cls-14{fill:url(#linear-gradient-4);}</style><linearGradient id="linear-gradient" x1="237.32" y1="107.04" x2="237.32" y2="366.38" gradientUnits="userSpaceOnUse"><stop offset="0" stop-color="#00baec"/><stop offset="0.06" stop-color="#08b1e5"/><stop offset="0.35" stop-color="#2a87c4"/><stop offset="0.62" stop-color="#4368ad"/><stop offset="0.84" stop-color="#53569e"/><stop offset="1" stop-color="#584f99"/></linearGradient><linearGradient id="linear-gradient-2" x1="369.14" y1="106.75" x2="93.43" y2="382.46" xlink:href="#linear-gradient"/><linearGradient id="linear-gradient-3" x1="156.37" y1="321.08" x2="215.65" y2="259.23" gradientUnits="userSpaceOnUse"><stop offset="0.49" stop-color="#fff"/><stop offset="0.55" stop-color="#fafafa"/><stop offset="0.61" stop-color="#ececec"/><stop offset="0.68" stop-color="#d5d5d5"/><stop offset="0.75" stop-color="#b5b5b5"/><stop offset="0.82" stop-color="#8c8c8c"/><stop offset="0.89" stop-color="#595959"/><stop offset="0.97" stop-color="#1e1e1e"/><stop offset="1"/></linearGradient><linearGradient id="linear-gradient-4" x1="2481.27" y1="-561.35" x2="2540.55" y2="-623.21" gradientTransform="translate(2799.5 -405.3) rotate(180)" xlink:href="#linear-gradient-3"/></defs><title>light</title><g class="cls-1"><g id="Background"><rect class="cls-2" width="1223.4" height="477.14"/><path class="cls-3" d="M651.8,287l.9-120H652L608.4,287H580L537.7,167h-.8l1,120H499.8V117.5h57.6l38.1,108.7h1L633,117.5h58.5V287Z"/><path class="cls-3" d="M882.4,201.8c0,14.8-2.8,27.6-8.2,38.4a77.2,77.2,0,0,1-21.5,26.6,91.6,91.6,0,0,1-30.2,15.3,120.2,120.2,0,0,1-34.1,4.9H725.9V117.5h60.6a147.6,147.6,0,0,1,35,4.2,87.3,87.3,0,0,1,30.8,13.9,70.3,70.3,0,0,1,21.8,25.9C879.6,172.4,882.4,185.8,882.4,201.8Zm-42.2,0c0-9.6-1.5-17.6-4.6-23.9a39.8,39.8,0,0,0-12.3-15,48.4,48.4,0,0,0-17.5-8.1,85.4,85.4,0,0,0-20.3-2.4H765.4v99.2h19.2a89.9,89.9,0,0,0,20.9-2.5,50.3,50.3,0,0,0,17.8-8.3,40.9,40.9,0,0,0,12.3-15.3C838.7,219.1,840.2,211.2,840.2,201.8Z"/><path class="cls-3" d="M1029.2,284c-10.9,5-23.5,7.6-37.7,7.6a97.9,97.9,0,0,1-35.9-6.5,82.9,82.9,0,0,1-47.4-46.7,93.3,93.3,0,0,1-6.9-36.4c0-13.6,2.3-25.9,7-36.9A81,81,0,0,1,927.6,137a84.8,84.8,0,0,1,28.9-17.9,101.4,101.4,0,0,1,35.7-6.2,98,98,0,0,1,34.9,6.4c11.5,4.2,20.8,10.4,27.9,18.5l-27.5,27.8a33.7,33.7,0,0,0-14.9-11.7,48.6,48.6,0,0,0-19-3.9,47.9,47.9,0,0,0-19.5,4,46.5,46.5,0,0,0-15.3,10.9,51,51,0,0,0-9.9,16.4,57.7,57.7,0,0,0-3.6,20.7,59.5,59.5,0,0,0,3.6,21.1,49.7,49.7,0,0,0,9.8,16.4,43.9,43.9,0,0,0,15.1,10.6,46.3,46.3,0,0,0,19.1,3.9c8.1,0,15.1-1.6,21.1-4.8a40.8,40.8,0,0,0,14.4-12.5l28.2,26.8A79,79,0,0,1,1029.2,284Z"/><path class="cls-3" d="M1073.9,287V117.5h40.7V251.3h64.9V287Z"/><path class="cls-4" d="M508.1,364.5V332.8H496.8v-6.4h30.3v6.4H515.8v31.7Z"/><path class="cls-4" d="M546.8,355.7l7.2,1.2a11.7,11.7,0,0,1-4.4,6.1,12.9,12.9,0,0,1-7.6,2.1c-4.8,0-8.3-1.5-10.6-4.7a15.3,15.3,0,0,1-2.8-9.5c0-4.6,1.2-8.2,3.6-10.7a11.8,11.8,0,0,1,9.1-3.9c4.1,0,7.3,1.3,9.7,4s3.5,6.9,3.4,12.5H536.1a7.8,7.8,0,0,0,1.8,5.1,5.4,5.4,0,0,0,4.2,1.8,4.3,4.3,0,0,0,2.9-1A5.5,5.5,0,0,0,546.8,355.7Zm.4-7.4a7,7,0,0,0-1.7-4.8,4.9,4.9,0,0,0-3.8-1.6,4.8,4.8,0,0,0-3.9,1.7,6.5,6.5,0,0,0-1.6,4.7Z"/><path class="cls-4" d="M587.1,345.1l-7.2,1.3a5.2,5.2,0,0,0-1.6-3.3,5.8,5.8,0,0,0-7.7.8c-1.1,1.3-1.6,3.4-1.6,6.3s.5,5.6,1.6,6.9a5.4,5.4,0,0,0,4.4,2.1,4.7,4.7,0,0,0,3.4-1.2,6.6,6.6,0,0,0,1.9-4.1l7.2,1.2a12.7,12.7,0,0,1-4.3,7.5c-2.1,1.7-4.9,2.5-8.5,2.5s-7.3-1.2-9.7-3.8-3.6-6.1-3.6-10.6,1.2-8.1,3.6-10.6,5.7-3.8,9.8-3.8a13.9,13.9,0,0,1,8.1,2.1A12.3,12.3,0,0,1,587.1,345.1Z"/><path class="cls-4" d="M602.6,326.4v14a11.1,11.1,0,0,1,13-3.2,7,7,0,0,1,3.1,2.4,9.2,9.2,0,0,1,1.4,3.2,33.5,33.5,0,0,1,.4,5.5v16.2h-7.3V349.9a19.3,19.3,0,0,0-.5-5.5,3.3,3.3,0,0,0-1.4-1.9,5.4,5.4,0,0,0-2.7-.6,6.6,6.6,0,0,0-3.2.8,4.8,4.8,0,0,0-2.1,2.7,14.7,14.7,0,0,0-.7,5.3v13.8h-7.3V326.4Z"/><path class="cls-4" d="M655.7,364.5h-7.3V350.4a22,22,0,0,0-.5-5.8,4.3,4.3,0,0,0-1.5-2,4.4,4.4,0,0,0-2.6-.7,5.9,5.9,0,0,0-3.4,1,4.7,4.7,0,0,0-2,2.8,21.6,21.6,0,0,0-.6,6.3v12.5h-7.3V336.9h6.8v4a11,11,0,0,1,9.1-4.6,12.3,12.3,0,0,1,4.4.8,8,8,0,0,1,3,2.3,8.5,8.5,0,0,1,1.5,3,29.1,29.1,0,0,1,.4,4.9Z"/><path class="cls-4" d="M664.1,350.3a15.7,15.7,0,0,1,1.7-7,12.2,12.2,0,0,1,5.1-5.2,15.3,15.3,0,0,1,7.4-1.8,13.9,13.9,0,0,1,10.3,4,14.4,14.4,0,0,1,4,10.3,14.2,14.2,0,0,1-4.1,10.4,13.5,13.5,0,0,1-10.2,4.1,15.3,15.3,0,0,1-7.2-1.7,11.7,11.7,0,0,1-5.3-5A18,18,0,0,1,664.1,350.3Zm7.4.4a9.3,9.3,0,0,0,2,6.3,6.3,6.3,0,0,0,9.6,0c1.3-1.5,1.9-3.6,1.9-6.4a9,9,0,0,0-1.9-6.2,6.3,6.3,0,0,0-9.6,0A9.3,9.3,0,0,0,671.5,350.7Z"/><path class="cls-4" d="M700.9,364.5V326.4h7.4v38.1Z"/><path class="cls-4" d="M716.7,350.3a14.6,14.6,0,0,1,1.8-7,12.2,12.2,0,0,1,5.1-5.2,14.9,14.9,0,0,1,7.3-1.8,13.7,13.7,0,0,1,10.3,4,15.4,15.4,0,0,1,0,20.7,13.5,13.5,0,0,1-10.2,4.1,15.3,15.3,0,0,1-7.2-1.7,11.7,11.7,0,0,1-5.3-5A16.7,16.7,0,0,1,716.7,350.3Zm7.5.4a9.3,9.3,0,0,0,2,6.3,6.3,6.3,0,0,0,9.6,0c1.3-1.5,1.9-3.6,1.9-6.4a9,9,0,0,0-1.9-6.2,6.3,6.3,0,0,0-9.6,0A9.3,9.3,0,0,0,724.2,350.7Z"/><path class="cls-4" d="M752.9,366.3l8.4,1a2.3,2.3,0,0,0,1,2c.6.6,1.7.8,3.2.8a9.4,9.4,0,0,0,4.3-.8,3.7,3.7,0,0,0,1.5-1.9,12.1,12.1,0,0,0,.3-3.3V360a9.9,9.9,0,0,1-8.3,4.5,10.3,10.3,0,0,1-8.8-4.7,16.1,16.1,0,0,1-2.5-9.3c0-4.6,1.1-8.1,3.3-10.6a10.8,10.8,0,0,1,8.3-3.6,10.2,10.2,0,0,1,8.5,4.5v-3.9h6.8v24.8a22.9,22.9,0,0,1-.8,7.3,9.3,9.3,0,0,1-2.2,3.8,10.4,10.4,0,0,1-3.9,2.1,18.7,18.7,0,0,1-6.2.8q-7,0-9.9-2.4a7.4,7.4,0,0,1-3-6.1Zm6.6-16.2c0,3,.5,5.1,1.7,6.5a5.3,5.3,0,0,0,4.2,2,5.7,5.7,0,0,0,4.5-2.1c1.2-1.4,1.8-3.5,1.8-6.2s-.5-5-1.7-6.4a5.6,5.6,0,0,0-4.5-2,5.2,5.2,0,0,0-4.3,2C760,345.3,759.5,347.3,759.5,350.1Z"/><path class="cls-4" d="M785.4,336.9h7.7l6.6,19.6,6.5-19.6h7.6L804,363.5l-1.7,4.8a24.7,24.7,0,0,1-1.9,3.7,6.4,6.4,0,0,1-2,2,7.3,7.3,0,0,1-2.8,1.3,14,14,0,0,1-3.7.4,18.4,18.4,0,0,1-4.1-.4l-.7-5.7,3.1.3a4.6,4.6,0,0,0,3.8-1.5,12.3,12.3,0,0,0,1.9-3.8Z"/><path class="cls-4" d="M838.6,364.5V326.4h28.3v6.4H846.3v8.5h19.2v6.4H846.3v10.4h21.3v6.4Z"/><path class="cls-4" d="M901.9,364.5h-7.3V350.4a22,22,0,0,0-.5-5.8,4,4,0,0,0-4-2.7,5.7,5.7,0,0,0-3.4,1,4.9,4.9,0,0,0-2.1,2.8,21.6,21.6,0,0,0-.6,6.3v12.5h-7.3V336.9h6.8v4a11.1,11.1,0,0,1,9.1-4.6,12.3,12.3,0,0,1,4.4.8,7.6,7.6,0,0,1,3.1,2.3,10.3,10.3,0,0,1,1.4,3,21.3,21.3,0,0,1,.4,4.9Z"/><path class="cls-4" d="M911.3,366.3l8.3,1a2.9,2.9,0,0,0,1,2,5,5,0,0,0,3.3.8,9.7,9.7,0,0,0,4.3-.8,3.5,3.5,0,0,0,1.4-1.9,8.5,8.5,0,0,0,.4-3.3V360a10,10,0,0,1-8.3,4.5,10.3,10.3,0,0,1-8.8-4.7,16.2,16.2,0,0,1-2.6-9.3c0-4.6,1.1-8.1,3.4-10.6a10.8,10.8,0,0,1,8.3-3.6,10,10,0,0,1,8.4,4.5v-3.9h6.9v24.8a26.3,26.3,0,0,1-.8,7.3,9.4,9.4,0,0,1-2.3,3.8,10.4,10.4,0,0,1-3.9,2.1,17.7,17.7,0,0,1-6.1.8c-4.7,0-8-.8-10-2.4a7.6,7.6,0,0,1-2.9-6.1Zm6.5-16.2c0,3,.6,5.1,1.7,6.5a5.6,5.6,0,0,0,4.2,2,6,6,0,0,0,4.6-2.1c1.2-1.4,1.8-3.5,1.8-6.2s-.6-5-1.8-6.4a5.3,5.3,0,0,0-4.4-2,5.4,5.4,0,0,0-4.4,2A9.8,9.8,0,0,0,917.8,350.1Z"/><path class="cls-4" d="M947.2,333.1v-6.7h7.3v6.7Zm0,31.4V336.9h7.3v27.6Z"/><path class="cls-4" d="M989.8,364.5h-7.3V350.4a22,22,0,0,0-.5-5.8,4.3,4.3,0,0,0-1.5-2,4.4,4.4,0,0,0-2.6-.7,5.9,5.9,0,0,0-3.4,1,4.7,4.7,0,0,0-2,2.8,21.6,21.6,0,0,0-.6,6.3v12.5h-7.3V336.9h6.8v4a11,11,0,0,1,9.1-4.6,12.3,12.3,0,0,1,4.4.8,8,8,0,0,1,3,2.3,8.5,8.5,0,0,1,1.5,3,29.1,29.1,0,0,1,.4,4.9Z"/><path class="cls-4" d="M1015.8,355.7l7.3,1.2a11.7,11.7,0,0,1-4.4,6.1,13.1,13.1,0,0,1-7.6,2.1c-4.8,0-8.4-1.5-10.7-4.7a15.9,15.9,0,0,1-2.7-9.5c0-4.6,1.2-8.2,3.6-10.7a11.8,11.8,0,0,1,9.1-3.9c4.1,0,7.3,1.3,9.7,4s3.5,6.9,3.4,12.5h-18.3a7.3,7.3,0,0,0,1.8,5.1,5.4,5.4,0,0,0,4.2,1.8,4.3,4.3,0,0,0,2.9-1A5.4,5.4,0,0,0,1015.8,355.7Zm.5-7.4a7,7,0,0,0-1.7-4.8,4.9,4.9,0,0,0-3.8-1.6,4.8,4.8,0,0,0-3.9,1.7,6.5,6.5,0,0,0-1.6,4.7Z"/><path class="cls-4" d="M1048.1,355.7l7.3,1.2a11.7,11.7,0,0,1-4.4,6.1,13.1,13.1,0,0,1-7.6,2.1c-4.8,0-8.4-1.5-10.7-4.7a15.9,15.9,0,0,1-2.7-9.5c0-4.6,1.2-8.2,3.6-10.7a11.8,11.8,0,0,1,9.1-3.9c4.1,0,7.3,1.3,9.7,4s3.5,6.9,3.4,12.5h-18.3a6.9,6.9,0,0,0,1.8,5.1,5.4,5.4,0,0,0,4.2,1.8,4.3,4.3,0,0,0,2.9-1A6.1,6.1,0,0,0,1048.1,355.7Zm.4-7.4a6.5,6.5,0,0,0-1.6-4.8,4.9,4.9,0,0,0-3.8-1.6,4.8,4.8,0,0,0-3.9,1.7,6.5,6.5,0,0,0-1.6,4.7Z"/><path class="cls-4" d="M1071.4,364.5h-7.3V336.9h6.8v3.9a14,14,0,0,1,3.1-3.7,6.9,6.9,0,0,1,3.2-.8,9.1,9.1,0,0,1,4.8,1.3l-2.3,6.4a6.1,6.1,0,0,0-3.4-1.2,3.9,3.9,0,0,0-2.6.9,5.3,5.3,0,0,0-1.7,3q-.6,2.3-.6,9.3Z"/><path class="cls-4" d="M1087.8,333.1v-6.7h7.3v6.7Zm0,31.4V336.9h7.3v27.6Z"/><path class="cls-4" d="M1130.4,364.5h-7.3V350.4a22,22,0,0,0-.5-5.8,4.3,4.3,0,0,0-1.5-2,4.1,4.1,0,0,0-2.5-.7,5.7,5.7,0,0,0-3.4,1,5.4,5.4,0,0,0-2.1,2.8,21.6,21.6,0,0,0-.6,6.3v12.5h-7.3V336.9h6.8v4a11.1,11.1,0,0,1,9.1-4.6,12.3,12.3,0,0,1,4.4.8,7.6,7.6,0,0,1,3.1,2.3,8.3,8.3,0,0,1,1.4,3,21.3,21.3,0,0,1,.4,4.9Z"/><path class="cls-4" d="M1139.8,366.3l8.4,1a2.5,2.5,0,0,0,.9,2,5,5,0,0,0,3.3.8,9.7,9.7,0,0,0,4.3-.8,4.2,4.2,0,0,0,1.5-1.9,12.1,12.1,0,0,0,.3-3.3V360a10,10,0,0,1-8.3,4.5,10.3,10.3,0,0,1-8.8-4.7,16.2,16.2,0,0,1-2.6-9.3c0-4.6,1.2-8.1,3.4-10.6a10.8,10.8,0,0,1,8.3-3.6,10.3,10.3,0,0,1,8.5,4.5v-3.9h6.8v24.8a26.3,26.3,0,0,1-.8,7.3,8.4,8.4,0,0,1-2.3,3.8,9,9,0,0,1-3.9,2.1,17.7,17.7,0,0,1-6.1.8c-4.7,0-8-.8-10-2.4a7.6,7.6,0,0,1-2.9-6.1Zm6.5-16.2c0,3,.6,5.1,1.7,6.5a5.6,5.6,0,0,0,4.2,2,6,6,0,0,0,4.6-2.1c1.2-1.4,1.8-3.5,1.8-6.2s-.6-5-1.8-6.4a5.3,5.3,0,0,0-4.4-2,5.4,5.4,0,0,0-4.4,2A9.8,9.8,0,0,0,1146.3,350.1Z"/><circle class="cls-5" cx="237.3" cy="238.6" r="196.6"/><circle class="cls-6" cx="237.3" cy="238.6" r="157.8"/><path class="cls-7" d="M264.9,326.8,149,210.9a42.9,42.9,0,0,1,0-60.6h0a42.9,42.9,0,0,1,60.7,0L325.6,266.2a42.9,42.9,0,0,1,0,60.6h0A42.9,42.9,0,0,1,264.9,326.8Z"/><path class="cls-8" d="M209.7,326.8,325.6,210.9a42.9,42.9,0,0,0,0-60.6h0a42.9,42.9,0,0,0-60.7,0L149,266.2a42.9,42.9,0,0,0,0,60.6h0A42.9,42.9,0,0,0,209.7,326.8Z"/><g class="cls-9"><path class="cls-2" d="M176.7,238.6,207,268.9l-57.9,57.9a42.7,42.7,0,0,1,0-60.6Z"/><path class="cls-2" d="M325.6,150.3l-57.9,57.9-30.4-30.3L265,150.3A42.7,42.7,0,0,1,325.6,150.3Z"/><path class="cls-10" d="M207,268.9l30.3,30.3-27.6,27.6a42.7,42.7,0,0,1-60.6,0h0Z"/><path class="cls-10" d="M325.6,211,298,238.6l-30.3-30.4,57.9-57.9A42.9,42.9,0,0,1,325.6,211Z"/><polygon class="cls-10" points="298 238.6 267.7 268.9 237.3 299.2 207 268.9 176.7 238.6 207 208.2 237.3 177.9 267.7 208.2 298 238.6"/><path class="cls-10" d="M149.1,150.3,207,208.2l-30.3,30.4L149.1,211A42.9,42.9,0,0,1,149.1,150.3Z"/><path class="cls-10" d="M325.6,326.8h0a42.7,42.7,0,0,1-60.6,0l-27.7-27.6,30.4-30.3Z"/><path class="cls-2" d="M209.7,150.3l27.6,27.6L207,208.2l-57.9-57.9A42.7,42.7,0,0,1,209.7,150.3Z"/><path class="cls-2" d="M325.6,326.8l-57.9-57.9L298,238.6l27.6,27.6A42.7,42.7,0,0,1,325.6,326.8Z"/></g><polygon class="cls-11" points="207 208.2 176.6 238.6 207 268.9 237.3 299.2 237.3 177.9 207 208.2"/><polygon class="cls-12" points="267.6 208.2 237.3 177.9 237.3 299.2 267.6 268.9 298 238.6 267.6 208.2"/><polygon class="cls-13" points="176.6 238.5 237.3 299.2 149 266.2 176.6 238.5"/><polygon class="cls-14" points="298 238.5 237.3 177.9 325.6 210.9 298 238.5"/></g></g></svg>