<svg xmlns="http://www.w3.org/2000/svg" xmlns:xlink="http://www.w3.org/1999/xlink" viewBox="0 0 700 700"><defs><style>.cls-1{isolation:isolate;}.cls-2,.cls-3{fill:none;stroke:#206aa5;stroke-miterlimit:10;}.cls-2{stroke-width:16.16px;}.cls-11,.cls-12,.cls-2,.cls-3,.cls-6,.cls-8{mix-blend-mode:multiply;}.cls-3{stroke-width:14.17px;}.cls-4{fill:url(#linear-gradient);}.cls-5{fill:url(#linear-gradient-2);}.cls-6{opacity:0.3;}.cls-7,.cls-8{fill:#fff;}.cls-9{fill:#00dac7;}.cls-10{fill:#00abd8;}.cls-11{fill:url(#linear-gradient-3);}.cls-12{fill:url(#linear-gradient-4);}</style><linearGradient id="linear-gradient" x1="349.99" y1="152.23" x2="349.99" y2="542.17" gradientUnits="userSpaceOnUse"><stop offset="0" stop-color="#00baec"/><stop offset="0.06" stop-color="#08b1e5"/><stop offset="0.35" stop-color="#2a87c4"/><stop offset="0.62" stop-color="#4368ad"/><stop offset="0.84" stop-color="#53569e"/><stop offset="1" stop-color="#584f99"/></linearGradient><linearGradient id="linear-gradient-2" x1="548.18" y1="151.8" x2="133.63" y2="566.36" xlink:href="#linear-gradient"/><linearGradient id="linear-gradient-3" x1="228.27" y1="474.07" x2="317.41" y2="381.06" gradientUnits="userSpaceOnUse"><stop offset="0.49" stop-color="#fff"/><stop offset="0.55" stop-color="#fafafa"/><stop offset="0.61" stop-color="#ececec"/><stop offset="0.68" stop-color="#d5d5d5"/><stop offset="0.75" stop-color="#b5b5b5"/><stop offset="0.82" stop-color="#8c8c8c"/><stop offset="0.89" stop-color="#595959"/><stop offset="0.97" stop-color="#1e1e1e"/><stop offset="1"/></linearGradient><linearGradient id="linear-gradient-4" x1="3842.95" y1="-1719.68" x2="3932.08" y2="-1812.7" gradientTransform="translate(4314.6 -1493.8) rotate(180)" xlink:href="#linear-gradient-3"/></defs><title>light-icon-no-bg</title><g class="cls-1"><g id="Background"><circle class="cls-2" cx="350" cy="350" r="295.6"/><circle class="cls-3" cx="350" cy="350" r="237.3"/><path class="cls-4" d="M391.5,482.7,217.3,308.5a64.5,64.5,0,0,1,0-91.2h0a64.5,64.5,0,0,1,91.2,0L482.7,391.5a64.5,64.5,0,0,1,0,91.2h0A64.5,64.5,0,0,1,391.5,482.7Z"/><path class="cls-5" d="M308.5,482.7,482.7,308.5a64.5,64.5,0,0,0,0-91.2h0a64.5,64.5,0,0,0-91.2,0L217.3,391.5a64.5,64.5,0,0,0,0,91.2h0A64.5,64.5,0,0,0,308.5,482.7Z"/><g class="cls-6"><path class="cls-7" d="M258.8,350l45.6,45.6-87.1,87.1a64.5,64.5,0,0,1,0-91.2Z"/><path class="cls-7" d="M482.7,217.3l-87.1,87.1L350,258.8l41.5-41.5A64.5,64.5,0,0,1,482.7,217.3Z"/><path class="cls-8" d="M304.4,395.6,350,441.2l-41.5,41.5a64.5,64.5,0,0,1-91.2,0h0Z"/><path class="cls-8" d="M482.7,308.5,441.2,350l-45.6-45.6,87.1-87.1A64.5,64.5,0,0,1,482.7,308.5Z"/><polygon class="cls-8" points="441.2 350 395.6 395.6 350 441.2 304.4 395.6 258.8 350 304.4 304.4 350 258.8 395.6 304.4 441.2 350"/><path class="cls-8" d="M217.3,217.3l87.1,87.1L258.8,350l-41.5-41.5A64.5,64.5,0,0,1,217.3,217.3Z"/><path class="cls-8" d="M482.7,482.7h0a64.5,64.5,0,0,1-91.2,0L350,441.2l45.6-45.6Z"/><path class="cls-7" d="M308.5,217.3,350,258.8l-45.6,45.6-87.1-87.1A64.5,64.5,0,0,1,308.5,217.3Z"/><path class="cls-7" d="M482.7,482.7l-87.1-87.1L441.2,350l41.5,41.5A64.5,64.5,0,0,1,482.7,482.7Z"/></g><polygon class="cls-9" points="304.4 304.4 258.8 350 304.4 395.6 350 441.2 350 258.8 304.4 304.4"/><polygon class="cls-10" points="395.6 304.4 350 258.8 350 441.2 395.6 395.6 441.2 350 395.6 304.4"/><polygon class="cls-11" points="258.8 350 350 441.2 217.3 391.5 258.8 350"/><polygon class="cls-12" points="441.2 350 350 258.8 482.7 308.4 441.2 350"/></g></g></svg>